<?xml version="1.0" standalone="no"?>
<!DOCTYPE svg PUBLIC "-//W3C//DTD SVG 1.1//EN" "http://www.w3.org/Graphics/SVG/1.1/DTD/svg11.dtd" >
<!--
2013-9-30: Created.
-->
<svg>
<metadata>
Created by iconfont
</metadata>
<defs>

<font id="iconfont" horiz-adv-x="1024" >
  <font-face
    font-family="iconfont"
    font-weight="500"
    font-stretch="normal"
    units-per-em="1024"
    ascent="896"
    descent="-128"
  />
    <missing-glyph />
    
    <glyph glyph-name="x" unicode="x" horiz-adv-x="1001"
d="M281 543q-27 -1 -53 -1h-83q-18 0 -36.5 -6t-32.5 -18.5t-23 -32t-9 -45.5v-76h912v41q0 16 -0.5 30t-0.5 18q0 13 -5 29t-17 29.5t-31.5 22.5t-49.5 9h-133v-97h-438v97zM955 310v-52q0 -23 0.5 -52t0.5 -58t-10.5 -47.5t-26 -30t-33 -16t-31.5 -4.5q-14 -1 -29.5 -0.5
t-29.5 0.5h-32l-45 128h-439l-44 -128h-29h-34q-20 0 -45 1q-25 0 -41 9.5t-25.5 23t-13.5 29.5t-4 30v167h911zM163 247q-12 0 -21 -8.5t-9 -21.5t9 -21.5t21 -8.5q13 0 22 8.5t9 21.5t-9 21.5t-22 8.5zM316 123q-8 -26 -14 -48q-5 -19 -10.5 -37t-7.5 -25t-3 -15t1 -14.5
t9.5 -10.5t21.5 -4h37h67h81h80h64h36q23 0 34 12t2 38q-5 13 -9.5 30.5t-9.5 34.5q-5 19 -11 39h-368zM336 498v228q0 11 2.5 23t10 21.5t20.5 15.5t34 6h188q31 0 51.5 -14.5t20.5 -52.5v-227h-327z" />
    

    
    <glyph glyph-name="tree1" unicode="&#58954;" d="M767.104 33.12l-95.68 0c-17.6 0-31.904 14.24-31.904 31.872l0 63.808c0 17.568 14.304 31.872 31.904 31.872l63.776 0 0 159.488-223.264 0 0-159.488 31.872 0c17.632 0 31.904-14.304 31.904-31.872l0-63.808c0-17.632-14.272-31.872-31.904-31.872l-95.68 0c-17.6 0-31.872 14.24-31.872 31.872l0 63.808c0 17.568 14.272 31.872 31.872 31.872l31.936 0 0 159.488-223.296 0 0-159.488 63.776 0c17.632 0 31.904-14.304 31.904-31.872l0-63.808c0-17.632-14.272-31.872-31.904-31.872l-95.648 0c-17.632 0-31.904 14.24-31.904 31.872l0 63.808c0 17.568 14.272 31.872 31.904 31.872l0 191.36 255.168 0 0 127.584-95.68 0c-17.632 0-31.904 14.272-31.904 31.904l0 159.488c0 17.6 14.272 31.904 31.904 31.904l223.264 0c17.632 0 31.872-14.272 31.872-31.904l0-159.456c0-17.6-14.24-31.904-31.872-31.904l-95.68 0 0-127.584 255.168 0 0-191.36c17.6 0 31.904-14.304 31.904-31.872l0-63.808c-0.032-17.664-14.368-31.904-31.936-31.904zM224.896 128.8l0-63.808 95.648 0 0 63.808-95.648 0zM607.616 511.52l0 159.488-223.264 0 0-159.456 223.264 0zM448.128 128.8l0-63.808 95.68 0 0 63.808-95.68 0zM767.104 128.8l-95.68 0 0-63.808 95.68 0 0 63.808z"  horiz-adv-x="1024" />

    
    <glyph glyph-name="number" unicode="&#58897;" d="M192.205557 702.515311l83.827197 0 0-603.603301-83.827197 0 0 513.743714-83.83129-65.063855 0 89.503477L192.205557 702.515311 192.205557 702.515311zM613.379968 553.975253c0 80.477916-33.917484 148.540058-123.068943 148.540058-72.090898 0-127.0977-56.006572-127.0977-128.421858l0-51.939953 84.831061 0 0 47.911196c0 28.180829 16.763802 44.270273 42.266639 44.270273 42.595121 0 42.595121-36.211736 42.595121-64.35675 0-31.854499 0-47.975664-12.770861-76.124771L367.278921 185.157279l0-80.153528 246.13277 0 0 84.154655L460.811154 189.158407l123.068943 240.780879C613.379968 481.884354 613.379968 498.00552 613.379968 553.975253L613.379968 553.975253zM895.724475 413.818119c46.588061 27.825742 50.941206 43.914162 50.941206 124.392078 0 72.059176-8.381901 96.211249-33.853016 124.06769-17.08819 16.089443-46.619784 40.237423-93.568049 40.237423-67.738777 0-127.061884-56.006572-127.061884-124.392078l0-47.943942 84.825944 0 0 47.943942c0 16.089443 12.767791 40.240493 42.271756 40.240493 25.470091 0 42.591027-16.121166 42.591027-40.240493l0-76.120678c0-44.237527-17.120936-52.296063-68.097958-52.296063l8.738012 0 0-72.094992c54.975079 0 67.774593-12.056594 67.774593-55.970756l0-84.506672c0-27.824719-16.796548-47.942919-42.303478-47.942919-25.471115 0-42.591027 16.08842-42.591027 43.914162l0 44.26618-84.826967 0 0-48.300053c0-92.177376 68.030419-124.06769 123.06485-124.06769 50.945299 0 80.476893 19.767206 101.918227 51.976792 16.797571 24.14798 21.11797 44.234457 21.11797 120.358205C946.665681 361.490334 946.665681 381.608533 895.724475 413.818119L895.724475 413.818119z"  horiz-adv-x="1024" />

    
    <glyph glyph-name="comparisonsamenode" unicode="&#58918;" d="M17.149589 387.924379 1001.183342 387.924379 17.149589 387.924379ZM17.149589 395.087523l6.139837 0 0-14.326287-6.139837 0 0 14.326287ZM982.741317 380.761236l-12.301164 0 0 14.326287 12.301164 0L982.741317 380.761236zM958.140013 380.761236l-12.301164 0 0 14.326287 12.301164 0L958.140013 380.761236zM933.538709 380.761236l-12.301164 0 0 14.326287 12.301164 0L933.538709 380.761236zM908.937404 380.761236l-12.301164 0 0 14.326287 12.301164 0L908.937404 380.761236zM884.3361 380.761236l-12.301164 0 0 14.326287 12.301164 0L884.3361 380.761236zM859.734796 380.761236 847.434655 380.761236l0 14.326287L859.734796 395.087523 859.734796 380.761236zM835.133491 380.761236l-12.301164 0 0 14.326287 12.301164 0L835.133491 380.761236zM810.532187 380.761236l-12.301164 0 0 14.326287 12.301164 0L810.532187 380.761236zM785.930883 380.761236l-12.301164 0 0 14.326287 12.301164 0L785.930883 380.761236zM761.329579 380.761236l-12.301164 0 0 14.326287 12.301164 0L761.329579 380.761236zM736.728274 380.761236l-12.301164 0 0 14.326287 12.301164 0L736.728274 380.761236zM712.12697 380.761236l-12.301164 0 0 14.326287 12.301164 0L712.12697 380.761236zM687.525666 380.761236l-12.301164 0 0 14.326287 12.301164 0L687.525666 380.761236zM662.924361 380.761236l-12.301164 0 0 14.326287 12.301164 0L662.924361 380.761236zM638.323057 380.761236l-12.301164 0 0 14.326287 12.301164 0L638.323057 380.761236zM613.721753 380.761236 601.421612 380.761236l0 14.326287 12.301164 0L613.722776 380.761236zM589.120448 380.761236l-12.301164 0 0 14.326287 12.301164 0L589.120448 380.761236zM564.519144 380.761236l-12.301164 0 0 14.326287 12.301164 0L564.519144 380.761236zM539.91784 380.761236l-12.301164 0 0 14.326287 12.301164 0L539.91784 380.761236zM515.316535 380.761236l-12.301164 0 0 14.326287 12.301164 0L515.316535 380.761236zM490.715231 380.761236l-12.301164 0 0 14.326287 12.301164 0L490.715231 380.761236zM466.113927 380.761236l-12.301164 0 0 14.326287 12.301164 0L466.113927 380.761236zM441.512622 380.761236l-12.301164 0 0 14.326287 12.301164 0L441.512622 380.761236zM416.911318 380.761236l-12.301164 0 0 14.326287 12.301164 0L416.911318 380.761236zM392.310014 380.761236 380.00885 380.761236l0 14.326287 12.301164 0L392.310014 380.761236zM367.708709 380.761236l-12.301164 0 0 14.326287 12.301164 0L367.708709 380.761236zM343.107405 380.761236l-12.301164 0 0 14.326287 12.301164 0L343.107405 380.761236zM318.506101 380.761236l-12.301164 0 0 14.326287 12.301164 0L318.506101 380.761236zM293.904797 380.761236l-12.301164 0 0 14.326287 12.301164 0L293.904797 380.761236zM269.303492 380.761236l-12.301164 0 0 14.326287 12.301164 0L269.303492 380.761236zM244.702188 380.761236l-12.301164 0 0 14.326287 12.301164 0L244.702188 380.761236zM220.100884 380.761236l-12.301164 0 0 14.326287 12.301164 0L220.100884 380.761236zM195.498556 380.761236l-12.301164 0 0 14.326287 12.301164 0L195.498556 380.761236zM170.897252 380.761236l-12.301164 0 0 14.326287 12.301164 0L170.897252 380.761236zM146.295947 380.761236 133.995807 380.761236l0 14.326287 12.301164 0L146.296971 380.761236zM121.694643 380.761236l-12.301164 0 0 14.326287 12.301164 0L121.694643 380.761236zM97.093339 380.761236 84.793198 380.761236l0 14.326287 12.301164 0L97.094362 380.761236zM72.492034 380.761236 60.191894 380.761236l0 14.326287 12.301164 0L72.493058 380.761236zM47.89073 380.761236 35.59059 380.761236l0 14.326287 12.301164 0L47.891753 380.761236zM995.043505 395.087523l6.139837 0 0-14.326287-6.139837 0 0 14.326287ZM507.189438 766.223285m-62.654992 0a61.228 61.228 0 1 0 125.309984 0 61.228 61.228 0 1 0-125.309984 0ZM507.189438 696.405149c-38.497802 0-69.819159 31.320333-69.819159 69.818135s31.320333 69.819159 69.819159 69.819159 69.819159-31.320333 69.819159-69.819159S545.68724 696.405149 507.189438 696.405149zM507.189438 821.715133c-30.598902 0-55.492872-24.89397-55.492872-55.492872 0-30.597879 24.89397-55.491849 55.492872-55.491849 30.597879 0 55.492872 24.89397 55.492872 55.491849C562.681286 796.822187 537.787316 821.715133 507.189438 821.715133zM179.428555 478.506421m-40.750099 0a39.822 39.822 0 1 0 81.500199 0 39.822 39.822 0 1 0-81.500199 0ZM179.428555 430.593178c-26.419719 0-47.913243 21.493523-47.913243 47.913243s21.493523 47.913243 47.913243 47.913243c26.418696 0 47.913243-21.493523 47.913243-47.913243S205.847252 430.593178 179.428555 430.593178zM179.428555 512.093377c-18.519796 0-33.586956-15.06716-33.586956-33.586956s15.06716-33.586956 33.586956-33.586956 33.586956 15.06716 33.586956 33.586956S197.948351 512.093377 179.428555 512.093377zM830.686203 478.506421m-40.750099 0a39.822 39.822 0 1 0 81.500199 0 39.822 39.822 0 1 0-81.500199 0ZM830.686203 430.593178c-26.419719 0-47.913243 21.493523-47.913243 47.913243s21.493523 47.913243 47.913243 47.913243 47.913243-21.493523 47.913243-47.913243S857.105922 430.593178 830.686203 430.593178zM830.686203 512.093377c-18.520819 0-33.586956-15.06716-33.586956-33.586956s15.06716-33.586956 33.586956-33.586956 33.586956 15.06716 33.586956 33.586956S849.205998 512.093377 830.686203 512.093377zM512 15.05002m-62.654992 0a61.228 61.228 0 1 0 125.309984 0 61.228 61.228 0 1 0-125.309984 0ZM512-54.768115c-38.497802 0-69.819159 31.320333-69.819159 69.819159s31.320333 69.819159 69.819159 69.819159 69.819159-31.320333 69.819159-69.819159S550.497802-54.768115 512-54.768115zM512 70.542892c-30.598902 0-55.492872-24.89397-55.492872-55.492872s24.89397-55.492872 55.492872-55.492872c30.597879 0 55.492872 24.89397 55.492872 55.492872S542.597879 70.542892 512 70.542892zM183.129854 307.249989m-40.750099 0a39.822 39.822 0 1 0 81.500199 0 39.822 39.822 0 1 0-81.500199 0ZM183.129854 259.336746c-26.419719 0-47.913243 21.493523-47.913243 47.913243s21.493523 47.913243 47.913243 47.913243c26.418696 0 47.913243-21.493523 47.913243-47.913243S209.549573 259.336746 183.129854 259.336746zM183.129854 340.836945c-18.519796 0-33.586956-15.06716-33.586956-33.586956s15.06716-33.586956 33.586956-33.586956 33.586956 15.06716 33.586956 33.586956S201.650673 340.836945 183.129854 340.836945zM511.649006 307.249989m-40.750099 0a39.822 39.822 0 1 0 81.500199 0 39.822 39.822 0 1 0-81.500199 0ZM511.649006 259.336746c-26.419719 0-47.913243 21.493523-47.913243 47.913243s21.493523 47.913243 47.913243 47.913243 47.913243-21.493523 47.913243-47.913243S538.068725 259.336746 511.649006 259.336746zM511.649006 340.836945c-18.520819 0-33.586956-15.06716-33.586956-33.586956s15.06716-33.586956 33.586956-33.586956 33.586956 15.06716 33.586956 33.586956S530.168802 340.836945 511.649006 340.836945zM834.387501 307.249989m-40.750099 0a39.822 39.822 0 1 0 81.500199 0 39.822 39.822 0 1 0-81.500199 0ZM834.388525 259.336746c-26.419719 0-47.913243 21.493523-47.913243 47.913243s21.493523 47.913243 47.913243 47.913243 47.913243-21.493523 47.913243-47.913243S860.808244 259.336746 834.388525 259.336746zM834.388525 340.836945c-18.520819 0-33.586956-15.06716-33.586956-33.586956s15.06716-33.586956 33.586956-33.586956 33.586956 15.06716 33.586956 33.586956S852.90832 340.836945 834.388525 340.836945zM187.894461 312.572237l328.889815-292.19986-9.51484-10.709567-328.889815 292.19986 9.51484 10.709567ZM829.592132 312.572919l9.621534-10.614346-322.368299-292.215615-9.621534 10.614346 322.368299 292.215615ZM491.656302 771.540083l9.627265-10.608615-317.036197-287.708743-9.627265 10.608615 317.036197 287.708743ZM501.138916 771.677983l334.184331-287.703692-9.346469-10.85646-334.184331 287.703692 9.346469 10.85646ZM504.485863 307.249989l14.326287 0 0-291.812135-14.326287 0 0 291.812135ZM507.189438 474.411149m-40.750099 0a39.822 39.822 0 1 0 81.500199 0 39.822 39.822 0 1 0-81.500199 0ZM507.189438 522.324392c26.419719 0 47.913243-21.493523 47.913243-47.913243s-21.493523-47.913243-47.913243-47.913243-47.913243 21.493523-47.913243 47.913243S480.768695 522.324392 507.189438 522.324392zM507.189438 440.82317c18.520819 0 33.586956 15.06716 33.586956 33.586956s-15.06716 33.586956-33.586956 33.586956-33.586956-15.06716-33.586956-33.586956S488.668619 440.82317 507.189438 440.82317zM500.026294 766.223285l14.326287 0 0-291.813159-14.326287 0 0 291.813159Z"  horiz-adv-x="1024" />

    
    <glyph glyph-name="tree" unicode="&#59336;" d="M945.056 174.944h-14.944v194.144a104.64 104.64 0 0 1-104.544 104.544h-253.856V593.088h14.944c24.64 0 44.8 20.16 44.8 44.8V787.232c0 24.64-20.16 44.8-44.8 44.8h-149.344c-24.64 0-44.8-20.16-44.8-44.8v-149.344c0-24.64 20.16-44.8 44.8-44.8h14.944v-119.456H198.4a104.64 104.64 0 0 1-104.544-104.544v-194.144h-14.944c-24.64 0-44.8-20.16-44.8-44.8V-19.2c0-24.64 20.16-44.8 44.8-44.8h149.344c24.64 0 44.8 20.16 44.8 44.8v149.344c0 24.64-20.16 44.8-44.8 44.8h-14.944v179.2h238.944v-179.2h-14.944c-24.64 0-44.8-20.16-44.8-44.8V-19.2c0-24.64 20.16-44.8 44.8-44.8h149.344c24.64 0 44.8 20.16 44.8 44.8v149.344c0 24.64-20.16 44.8-44.8 44.8h-14.944v179.2h238.944v-179.2h-14.944c-24.64 0-44.8-20.16-44.8-44.8V-19.2c0-24.64 20.16-44.8 44.8-44.8h149.344c24.64 0 44.8 20.16 44.8 44.8v149.344c0 24.64-20.16 44.8-44.8 44.8z m-731.712-179.2H93.888V115.2h119.456v-119.456z m358.4 0h-119.456V115.2h119.456v-119.456zM452.256 652.8V772.256h119.456V652.8h-119.456z m477.888-657.056h-119.456V115.2h119.456v-119.456z"  horiz-adv-x="1024" />

    
    <glyph glyph-name="jiaoji" unicode="&#58981;" d="M861.063047-64.549899H463.032752c-54.957683 0-99.507318 44.549635-99.507318 99.507318V233.973078H164.508751c-54.957683 0-99.507318 44.549635-99.507318 99.508342V731.512738c0 54.957683 44.549635 99.507318 99.507318 99.507318h398.031319c54.957683 0 99.507318-44.549635 99.507318-99.507318v-199.015659h199.015659c54.957683 0 99.507318-44.549635 99.507318-99.507318v-398.031319c0.001023-54.958706-44.548612-99.508341-99.507318-99.508341zM562.54007 681.758568c0 27.478841-22.275329 49.754171-49.754171 49.75417H214.262922c-27.478841 0-49.754171-22.275329-49.754171-49.75417v-298.522978c0-27.478841 22.275329-49.754171 49.754171-49.75417h149.261488v99.507318c0 54.957683 44.549635 99.507318 99.507318 99.507318h99.507319V681.758568z m298.522977-298.524001c0 27.478841-22.275329 49.754171-49.75417 49.754171H662.048411v-99.507318c0-54.957683-44.549635-99.508341-99.507318-99.508342h-99.507318v-149.261488c0-27.478841 22.274306-49.754171 49.754171-49.754171h298.522977c27.478841 0 49.754171 22.275329 49.754171 49.754171V383.234567z"  horiz-adv-x="1024" />

    
    <glyph glyph-name="bingji" unicode="&#58989;" d="M860.456227 534.276608H661.604296V733.129562c0 54.912657-44.51382 99.425454-99.425453 99.425454H164.472935c-54.912657 0-99.425454-44.51382-99.425453-99.425454v-397.704884c0-54.913681 44.512796-99.4275 99.425453-99.4275h198.852954v-198.85193c0-54.912657 44.51382-99.425454 99.425454-99.425454h397.70386c54.913681 0 99.4275 44.512796 99.425454 99.4275V434.851155c0.002047 54.912657-44.51075 99.425454-99.42443 99.425453z m-297.709449-85.264942c0-7.821129 6.340405-14.161534 14.161534-14.161534h69.739341c0.200568 0 0.394996 0.021489 0.594541 0.029675l14.364149-0.029675h149.137669c27.456329 0 49.713238-22.25691 49.713238-49.713239h0.002047v-298.27943c0-27.456329-22.25691-49.713238-49.713239-49.713239H512.466628c-27.457352 0-49.713238 22.25691-49.713239 49.713239V251.780653l-0.115633 0.36839v69.151963c0 7.821129-6.340405 14.161534-14.161535 14.161534h-85.150332v-0.038885H214.186174c-27.456329 0-49.713238 22.25691-49.713239 49.713238V683.416324c0 27.456329 22.25691 49.713238 49.713239 49.713238H512.465604c27.456329 0 49.713238-22.25691 49.713239-49.713238h-0.001024v-149.140739h-0.036839"  horiz-adv-x="1024" />

    
    <glyph glyph-name="buji" unicode="&#58994;" d="M860.811314 832.569342h-695.02957c-54.837956 0-99.290377-44.452421-99.290377-99.290377v-695.02957c0-54.837956 44.452421-99.290377 99.290377-99.290377h695.02957c54.837956 0 99.290377 44.452421 99.290377 99.290377v695.02957c0 54.837956-44.452421 99.290377-99.290377 99.290377z m0-744.674247c0-27.418466-22.226211-49.644677-49.644677-49.644677H513.296529c-27.418466 0-49.644677 22.226211-49.644677 49.644677V385.76418c0 27.418466 22.226211 49.644677 49.644677 49.644677h297.870108c27.418466 0 49.644677-22.226211 49.644677-49.644677v-297.869085z"  horiz-adv-x="1024" />

    
    <glyph glyph-name="ico-lassotool-QQn-" unicode="&#58946;" d="M233.244444 184.888889H227.555556c-68.266667 0-96.711111 11.377778-96.711112 45.511111 0 17.066667 11.377778 28.444444 28.444445 39.822222 22.755556-28.444444 56.888889-62.577778 73.955555-85.333333zM227.555556 281.6c68.266667 0 96.711111-17.066667 96.711111-51.2 0-22.755556-11.377778-34.133333-34.133334-39.822222-17.066667 22.755556-51.2 62.577778-79.644444 91.022222H227.555556z m261.688888-85.333333C745.244444 213.333333 967.111111 389.688889 967.111111 560.355556 967.111111 708.266667 802.133333 861.866667 540.444444 839.111111 278.755556 822.044444 56.888889 657.066667 56.888889 457.955556c0-51.2 11.377778-113.777778 45.511111-153.6-28.444444-17.066667-39.822222-39.822222-39.822222-68.266667 0-56.888889 73.955556-102.4 164.977778-102.4h22.755555c22.755556-17.066667 62.577778-45.511111 62.577778-73.955556 5.688889-45.511111-68.266667-125.155556-68.266667-125.155555h56.888889s62.577778 96.711111 56.888889 130.844444c0 22.755556-28.444444 56.888889-51.2 79.644445 34.133333 11.377778 62.577778 28.444444 73.955556 51.2h108.088888z m45.511112 580.266666c238.933333 11.377778 364.088889-96.711111 375.466666-216.177777 11.377778-125.155556-182.044444-295.822222-420.977778-307.2H386.844444c-17.066667 45.511111-79.644444 79.644444-159.288888 79.644444-22.755556 0-39.822222-5.688889-62.577778-11.377778-22.755556 22.755556-34.133333 62.577778-39.822222 85.333334-45.511111 164.977778 164.977778 358.4 409.6 369.777777z"  horiz-adv-x="1024" />

    
    <glyph glyph-name="UnionLayout" unicode="&#58923;" d="M127.99 768.01h768.184v-131.319H127.99zM126.84 576.446h768.184v-128.742H126.84zM128.118 380.366h768.184v-124.331H128.118zM126.82 194.839h768.184V64.28H126.82z"  horiz-adv-x="1024" />

    
    <glyph glyph-name="FishEyeLayout" unicode="&#58931;" d="M128.203 766.185h768.184v-127.962H128.203zM128.612 608.332h768.184v-88.112H128.612zM128.222 482.624h768.184v-61.774H128.222zM126.555 387.882h768.184v-60.928H126.555zM128.768 292.709h768.184v-31.991H128.768zM127.981 229.268h768.184v-31.991H127.981zM128.195 170.196h768.184v-31.991H128.195zM128.408 115.005h768.184v-21.587H128.408zM128.344 69.13h768.184v-21.587H128.344zM128.28 25.987h768.184V4.4H128.28z"  horiz-adv-x="1024" />

    
    <glyph glyph-name="level-density_width" unicode="&#58924;" d="M100.381 668.422h168.694v-501.659H100.381zM317.488 668.422h84.347v-501.659h-84.347zM454.466 668.422h42.174v-501.659h-42.174zM553.488 668.422h42.174v-501.659h-42.174zM652.509 668.422h42.174v-501.659h-42.174zM747.314 668.422h84.347v-501.659h-84.347zM891.92 668.422h42.174v-501.659H891.92z"  horiz-adv-x="1024" />

    
    <glyph glyph-name="level-density_width1" unicode="&#58925;" d="M100.379 665.642h168.538v-500.679H100.379zM317.285 516.515h84.269v-351.552h-84.269zM454.136 370.035h42.134v-205.072h-42.134zM553.066 267.499H595.2v-102.536h-42.134zM651.996 216.231h42.134v-51.268h-42.134zM746.712 314.373h84.269v-149.41h-84.269zM891.184 314.373h42.134v-149.41h-42.134z"  horiz-adv-x="1024" />

    
    <glyph glyph-name="level-widthvalue-he" unicode="&#58926;" d="M105.57 660.432h167.919v-489.515H105.57zM321.679 514.63h83.959v-343.714h-83.959zM458.027 371.416h41.98v-200.5h-41.98zM556.594 271.167h41.98v-100.25h-41.98zM655.16 221.042h41.98v-50.125h-41.98zM749.529 316.995h83.959v-146.078h-83.959zM893.47 316.995h41.98v-146.078h-41.98z"  horiz-adv-x="1024" />

    
    <glyph glyph-name="level-densityvalue-" unicode="&#58927;" d="M110.427 660.432h84.036v-489.515h-84.036zM233.925 514.631h84.036v-343.713h-84.036zM357.423 371.417h84.036v-200.5h-84.036zM480.921 271.167h84.036v-100.25h-84.036zM604.419 221.042h84.036v-50.125h-84.036zM727.917 316.995h84.036v-146.078h-84.036zM851.414 316.995h84.036v-146.078h-84.036z"  horiz-adv-x="1024" />

    
    <glyph glyph-name="level-densityvalue-1" unicode="&#58928;" d="M106.775 660.432h82.722v-489.515h-82.722zM231.101 660.432h82.722v-489.515h-82.722zM355.426 660.432h82.722v-489.515h-82.722zM479.751 660.432h82.722v-489.515h-82.722zM604.077 660.432h82.722v-489.515h-82.722zM728.402 660.432h82.722v-489.515h-82.722zM852.728 660.432h82.722v-489.515h-82.722z"  horiz-adv-x="1024" />

    
    <glyph glyph-name="level-widthvalue-de" unicode="&#58929;" d="M104.993 660.432h168.035v-494.625H104.993zM321.253 660.432h84.018v-494.625h-84.018zM457.696 660.432h42.009v-494.625h-42.009zM556.331 660.432h42.009v-494.625h-42.009zM654.965 660.432h42.009v-494.625h-42.009zM749.399 660.432h84.018v-494.625h-84.018zM893.441 660.432h42.009v-494.625h-42.009z"  horiz-adv-x="1024" />

    
    <glyph glyph-name="level-widthvalue-nu" unicode="&#58930;" d="M103.111 662.765h168.416v-496.958H103.111zM319.861 662.765h84.208v-496.958h-84.208zM456.613 662.765h42.104v-496.958h-42.104zM555.471 662.765h42.104v-496.958h-42.104zM654.33 662.765h42.104v-496.958H654.33zM748.978 662.765h84.208v-496.958h-84.208zM893.346 662.765h42.104v-496.958h-42.104z"  horiz-adv-x="1024" />

    
    <glyph glyph-name="compare-arrows" unicode="&#60084;" d="M384.426667 298.666667H85.333333v-85.333334h299.093334v-128L554.666667 256l-170.24 170.666667v-128z m255.146666 42.666666v128H938.666667V554.666667h-299.093334V682.666667L469.333333 512l170.24-170.666667z"  horiz-adv-x="1024" />

    
    <glyph glyph-name="level-height" unicode="&#58932;" d="M105.939 638.743h168.416v-496.958H105.939zM322.689 578.535h84.208v-388.662h-84.208zM459.441 511.271h42.104v-252.903h-42.104zM558.299 512.293h42.104v-255.228h-42.104zM657.158 513.419h42.104V255.55h-42.104zM751.806 576.532h84.208v-384.815h-84.208zM896.174 514.052h42.104v-256.961h-42.104z"  horiz-adv-x="1024" />

    
    <glyph glyph-name="level-height1" unicode="&#58933;" d="M97.94 641.873h82.722v-515.511H97.94zM222.266 577.488h82.722v-386.5h-82.722zM346.591 513.025h82.722V256.34h-82.722zM470.916 514.155h82.722V257.47h-82.722zM595.242 514.155h82.722V254.08h-82.722zM719.567 578.579h82.722v-384.402h-82.722zM843.893 513.025h82.722v-255.554h-82.722z"  horiz-adv-x="1024" />

    
    <glyph glyph-name="FishEyeLayout1" unicode="&#58936;" d="M147.6 700.7h727.1v-108H147.6zM875.2 592.2H147.1v109h728.1v-109z m-727.1 1h726.1v107H148.1v-107zM148 567.5h727.1v-74.3H148zM875.6 492.6H147.5V568h728.1v-75.4z m-727.1 1h726.1V567H148.5v-73.4zM147.6 461.4h727.1v-52.1H147.6zM875.2 408.8H147.1v53.1h728.1v-53.1z m-727.1 1h726.1v51.1H148.1v-51.1zM146 381.4h727.1V330H146zM873.6 329.5H145.5v52.4h728.1v-52.4z m-727.1 1h726.1v50.4H146.5v-50.4zM148.1 301.1h727.1v-27H148.1zM875.7 273.7H147.6v28h728.1v-28z m-727.1 1h726.1v26H148.6v-26zM147.4 247.6h727.1v-27H147.4zM875 220.1H146.9v28H875v-28z m-727.1 1H874v26H147.9v-26zM147.6 196.6h727.1v-25.8H147.6zM875.2 170.3H147.1v26.8h728.1v-26.8z m-727.1 1h726.1v24.8H148.1v-24.8zM147.8 151.2h727.1V133H147.8zM875.4 132.5H147.3v19.2h728.1v-19.2z m-727.1 1h726.1v17.2H148.3v-17.2zM147.7 112.5h727.1v-18.2H147.7zM875.3 93.8H147.2V113h728.1v-19.2z m-727.1 1h726.1V112H148.2v-17.2zM147.7 76.1h727.1v-18.2H147.7zM875.3 57.4H147.2v19.2h728.1v-19.2z m-727.1 1h726.1v17.2H148.2v-17.2z"  horiz-adv-x="1024" />

    
    <glyph glyph-name="UnionLayout1" unicode="&#58937;" d="M152.2 734h727.2v-116.9H152.2zM879.8 616.6H151.7V734.5h728.2v-117.9z m-727.1 1h726.2V733.5H152.7v-115.9zM155 555h727.2v-116.9H155zM882.6 437.5H154.5v118h728.2v-118z m-727.1 1h726.2v116H155.5v-116zM152.6 384.4h727.2v-116.9H152.6zM880.3 266.9H152.1v118h728.2v-118z m-727.2 1h726.2v116H153.1v-116zM150.6 207.5h727.2v-116.9H150.6zM878.3 90.1H150.1V208h728.2v-117.9z m-727.2 1h726.2V207H151.1v-115.9z"  horiz-adv-x="1024" />

    
    <glyph glyph-name="alignment" unicode="&#58940;" d="M294.8 842.6h223.9v-920.2H294.8zM559.7 839.3h136.1v-920.2H559.7zM101.3 474L34.6 839.2h223.9M104.1 287.9L37.4-77.3h223.9M822.1 563.7L738.1 836h248.8M825.2 200l-84.1-280.5H990"  horiz-adv-x="1024" />

    
    <glyph glyph-name="show-histogram" unicode="&#58941;" d="M715.9 854.7h155.5v-933H715.9zM246.5 828.5h406.2v-242.7H246.5zM372.6 505.7h277.8V263H372.6zM34.9 190.8h617.8v-242.7H34.9zM908.6 849.1h70.7v-933h-70.7z"  horiz-adv-x="1024" />

    
    <glyph glyph-name="numbercomparison" unicode="&#58942;" d="M43.1 613.2h161.7v-194.4H43.1zM44.1 354.6h158.8v-194.4H44.1zM248.9 613.2h93.2v-194.4h-93.2zM393.4 613.2h46.7v-194.4h-46.7zM248.9 354.6h93.2v-194.4h-93.2zM395.1 354.6h46.6v-194.4h-46.6zM478.9 613.2h46.6v-194.4h-46.6zM480.3 354.6h93.2v-194.4h-93.2zM621.8 354.6h46.6v-194.4h-46.6zM713.7 354.6h46.6v-194.4h-46.6zM805.2 354.6h93.2v-194.4h-93.2zM951.4 354.6H998v-194.4h-46.6zM47.3 96.3h158.8v-194.4H47.3zM252.2 96.3h93.2v-194.4h-93.2zM398.3 96.3h46.6v-194.4h-46.6zM483.5 96.3h93.2v-194.4h-93.2zM623 96.3h46.6v-194.4H623zM713.7 96.3h46.6v-194.4h-46.6zM44.5 855.6h158.8v-194.4H44.5zM249.3 855.6h93.2v-194.4h-93.2zM395.5 855.6h46.6v-194.4h-46.6zM480.7 855.6h93.2v-194.4h-93.2zM623 855.6h46.6v-194.4H623zM713.7 855.6h46.6v-194.4h-46.6zM805.2 855.6h46.6v-194.4h-46.6z"  horiz-adv-x="1024" />

    
    <glyph glyph-name="tree-uncollapse1" unicode="&#58943;" d="M70.656 817.152h382.464v-844.8h-382.464v844.8z m471.552-3.072h232.448v-844.8h-232.448V814.08z m303.616 0h111.616v-844.8h-111.616V814.08z"  horiz-adv-x="1024" />

    
    <glyph glyph-name="tree-collapse1" unicode="&#58944;" d="M243.712 814.08H783.36v-597.504h-539.648V814.08zM496.64 200.192l475.136-273.92h-896"  horiz-adv-x="1024" />

    
    <glyph glyph-name="tree-attribute" unicode="&#58945;" d="M69.632 791.552h382.464v-844.8h-382.464v844.8z m471.552-462.848h232.448V-56.32h-232.448v385.024z m303.616 202.24h111.616V-56.32H844.8V530.944z"  horiz-adv-x="1024" />

    
    <glyph glyph-name="disgonal-strip" unicode="&#58947;" d="M842.3-54.9H178.7V829.6h663.6v-884.5z m-643.6 20h623.6V809.6H198.7v-844.5zM857.3-69.9H163.7V844.6h693.6v-914.5z m-643.6 50h593.6V794.6H213.7v-814.5zM531.373 819.88l18.464-7.688L198.034-32.72l-18.464 7.688zM523.283 839.47l46.155-19.225L206.01-52.269l-46.155 19.225zM669.282 819.612l18.464-7.688-354.571-851.56-18.464 7.688zM661.181 839.195l46.155-19.225L341.14-59.19l-46.155 19.224zM810.825 826.586l18.464-7.688L470.3-43.278l-18.465 7.688zM802.719 846.187l46.16-19.22-370.524-889.873-46.16 19.22zM255.802 824.819l18.464-7.688-72.23-173.47-18.463 7.688zM247.719 844.432l46.16-19.22-83.761-201.165-46.16 19.22zM818.105 510.632l18.464-7.688-229.371-550.873-18.464 7.688zM809.976 530.225l46.16-19.22-240.903-578.57-46.16 19.22zM816.862 174.584l18.464-7.688-88.68-212.982-18.465 7.688zM808.724 194.177l46.16-19.22L754.67-65.721l-46.16 19.22zM391.984 819.508l18.464-7.688-213.573-512.93-18.464 7.688zM383.904 839.123l46.16-19.22L204.96 279.277l-46.16 19.22z"  horiz-adv-x="1024" />

    


  </font>
</defs>
</svg>
